# xmcd
#
# Track frame offsets: 
#        150
#        13242
#        25889
#        39141
#        53174
#        64852
#        73075
#        83525
#        95189
#        103092
#        113868
#        128281
#
# Disc length: 1851 seconds
#
# Revision: 2
# Processed by: cddbd v1.5.2PL0 Copyright (c) Steve Scherf et al.
# Submitted via: ExactAudioCopy v0.99pb5
#
DISCID=9807390c
DTITLE=Various Artist - Hits Of The '60s
DYEAR=2007
DGENRE=Oldies
TTITLE0=Herman's Hermits - No Milk Today
TTITLE1=The Archies - Sugar Sugar
TTITLE2=Tommy Roe - Dizzy
TTITLE3=Shocking Blue - Venus
TTITLE4=The Ronettes - Be My Baby
TTITLE5=The Ventures - Hawaii Five-O
TTITLE6=Carl Perkins  - Jailhouse Rock
TTITLE7=Pat Boone - Speedy Gonzales
TTITLE8=Singing  Blue Jeans - Hippy, Hippy, Shake
TTITLE9=Chubby Checker - Let's Twist Again
TTITLE10=Marmalade - Ob-La-Di, Ob-La -Da
TTITLE11=Sam "The Sham " and The Pharaohs - Wooly Bully
EXTD=
EXTT0=
EXTT1=
EXTT2=
EXTT3=
EXTT4=
EXTT5=
EXTT6=
EXTT7=
EXTT8=
EXTT9=
EXTT10=
EXTT11=
PLAYORDER=
